nColumns=19
nRows=45
DataType=double
version=3
OpenSimVersion=4.1
endheader
time	ground_force_calcn_r_vx	ground_force_calcn_r_vy	ground_force_calcn_r_vz	ground_force_calcn_r_px	ground_force_calcn_r_py	ground_force_calcn_r_pz	ground_force_calcn_r_mx	ground_force_calcn_r_my	ground_force_calcn_r_mz	ground_force_calcn_l_vx	ground_force_calcn_l_vy	ground_force_calcn_l_vz	ground_force_calcn_l_px	ground_force_calcn_l_py	ground_force_calcn_l_pz	ground_force_calcn_l_mx	ground_force_calcn_l_my	ground_force_calcn_l_mz
3.2	17.5677	294.626	-40.7977	-0.243169	0	-0.383473	-0.0969666	-1.62622	0.225188	6.05527	308.677	45.8891	-0.208696	0	-0.768962	0.0498452	2.54094	0.377746
3.21	17.6793	302.309	-42.2128	-0.242023	0	-0.382669	-0.103743	-1.77397	0.247707	5.54286	316.321	47.3513	-0.207217	0	-0.769799	0.0480855	2.74415	0.410783
3.22	17.5528	309.889	-43.6691	-0.240763	0	-0.381861	-0.1087	-1.91906	0.270431	4.87696	323.292	48.587	-0.205697	0	-0.770539	0.0443751	2.94162	0.442091
3.23	17.212	317.212	-45.1398	-0.239417	0	-0.381065	-0.111785	-2.06017	0.293165	4.0804	329.526	49.5769	-0.204153	0	-0.771179	0.0387966	3.13314	0.471379
3.24	16.6857	324.136	-46.5898	-0.238015	0	-0.380292	-0.113054	-2.19618	0.315669	3.18512	334.961	50.3158	-0.202604	0	-0.77172	0.0315527	3.31821	0.498443
3.25	16.0088	330.54	-47.9803	-0.236584	0	-0.379559	-0.112667	-2.32627	0.337675	2.2289	339.531	50.8096	-0.201066	0	-0.772166	0.0229496	3.49593	0.523154
3.26	15.2236	336.34	-49.2793	-0.235146	0	-0.378875	-0.110896	-2.45007	0.358975	1.25125	343.179	51.0698	-0.199554	0	-0.772523	0.0133639	3.66532	0.54545
3.27	14.3778	341.49	-50.4685	-0.233722	0	-0.378246	-0.108109	-2.56773	0.379482	0.290964	345.865	51.1109	-0.198078	0	-0.772797	0.00321835	3.82561	0.565337
3.28	13.5186	345.974	-51.5439	-0.232326	0	-0.377674	-0.1047	-2.67953	0.399201	-0.616393	347.581	50.9507	-0.196645	0	-0.772999	-0.00705162	3.97637	0.582883
3.29	12.6881	349.804	-52.5117	-0.230973	0	-0.377159	-0.101037	-2.78555	0.41816	-1.44235	348.361	50.6121	-0.19526	0	-0.773137	-0.0170483	4.11757	0.598227
3.3	11.921	353.013	-53.3805	-0.229673	0	-0.376697	-0.0974443	-2.88559	0.436342	-2.16929	348.284	50.1227	-0.193925	0	-0.773227	-0.0264691	4.24967	0.611583
3.31	11.2426	355.648	-54.1551	-0.228432	0	-0.376286	-0.0941779	-2.97923	0.453652	-2.79334	347.474	49.5147	-0.192636	0	-0.773283	-0.0351584	4.37348	0.623218
3.32	10.6657	357.766	-54.8326	-0.227254	0	-0.375926	-0.0914064	-3.06611	0.469924	-3.32308	346.086	48.8243	-0.191391	0	-0.773322	-0.0431121	4.48996	0.633424
3.33	10.1902	359.422	-55.4011	-0.226139	0	-0.375616	-0.0891956	-3.14605	0.48493	-3.77656	344.296	48.0897	-0.190184	0	-0.773358	-0.050458	4.60009	0.642519
3.34	9.80519	360.671	-55.8433	-0.225087	0	-0.375357	-0.0875177	-3.21922	0.498439	-4.17723	342.272	47.3489	-0.189012	0	-0.773407	-0.0574178	4.70468	0.650831
3.35	9.49277	361.566	-56.1432	-0.224092	0	-0.375148	-0.0862814	-3.28633	0.510295	-4.54729	340.16	46.6343	-0.187869	0	-0.773481	-0.0642251	4.80437	0.658654
3.36	9.23163	362.165	-56.2893	-0.223152	0	-0.37499	-0.0853591	-3.34871	0.520472	-4.90233	338.077	45.9693	-0.186753	0	-0.773589	-0.0710484	4.89968	0.666223
3.37	9.00024	362.53	-56.2751	-0.222262	0	-0.374883	-0.0846134	-3.40823	0.529055	-5.25137	336.119	45.3688	-0.185667	0	-0.773733	-0.0779829	4.99137	0.673728
3.38	8.78042	362.723	-56.0984	-0.221421	0	-0.374826	-0.0839253	-3.46699	0.536202	-5.59914	334.375	44.8402	-0.184615	0	-0.773912	-0.0850714	5.08038	0.681287
3.39	8.55835	362.798	-55.761	-0.220626	0	-0.374817	-0.0832004	-3.52695	0.542083	-5.94928	332.932	44.3829	-0.183607	0	-0.774121	-0.0923434	5.16769	0.688902
3.4	8.32448	362.799	-55.2673	-0.219874	0	-0.374854	-0.0823696	-3.58985	0.546862	-6.30618	331.87	43.9882	-0.182649	0	-0.774351	-0.0998431	5.25437	0.696448
3.41	8.07494	362.763	-54.6215	-0.219167	0	-0.374933	-0.0814057	-3.65712	0.550654	-6.67426	331.266	43.6418	-0.181744	0	-0.774594	-0.107621	5.34158	0.703714
3.42	7.81264	362.719	-53.828	-0.218501	0	-0.375048	-0.0803395	-3.72993	0.553528	-7.0564	331.175	43.3283	-0.180902	0	-0.774841	-0.115705	5.43035	0.710464
3.43	7.54684	362.684	-52.892	-0.217878	0	-0.375198	-0.079261	-3.80911	0.555501	-7.45226	331.623	43.0348	-0.180124	0	-0.775084	-0.124073	5.52119	0.716485
3.44	7.29223	362.672	-51.8202	-0.217297	0	-0.375375	-0.0783166	-3.895	0.556535	-7.85616	332.593	42.7498	-0.179412	0	-0.775317	-0.132607	5.61396	0.721589
3.45	7.06722	362.677	-50.6208	-0.216758	0	-0.375575	-0.0776996	-3.9874	0.556543	-8.2563	334.027	42.4626	-0.178762	0	-0.775535	-0.141085	5.70791	0.725609
3.46	6.8915	362.675	-49.3045	-0.216259	0	-0.375791	-0.0776306	-4.08542	0.555399	-8.63662	335.844	42.1655	-0.178174	0	-0.775736	-0.149201	5.80184	0.728427
3.47	6.78259	362.619	-47.8858	-0.215798	0	-0.376016	-0.0783237	-4.18744	0.552975	-8.98081	337.96	41.8541	-0.177639	0	-0.775918	-0.156633	5.89429	0.729969
3.48	6.75112	362.446	-46.3839	-0.215372	0	-0.37624	-0.079933	-4.29135	0.549183	-9.2787	340.298	41.528	-0.177152	0	-0.776081	-0.163153	5.98366	0.730211
3.49	6.79727	362.096	-44.8212	-0.214974	0	-0.376456	-0.0824982	-4.39475	0.543993	-9.53089	342.791	41.1919	-0.176706	0	-0.776227	-0.16872	6.06822	0.729197
3.5	6.91004	361.521	-43.2233	-0.214597	0	-0.376662	-0.0859169	-4.49502	0.537423	-9.74887	345.376	40.8546	-0.176294	0	-0.776357	-0.173489	6.14624	0.72704
3.51	7.06959	360.698	-41.6167	-0.214234	0	-0.376851	-0.0899551	-4.5896	0.52954	-9.95197	347.993	40.5268	-0.175905	0	-0.776474	-0.177764	6.21592	0.723899
3.52	7.25125	359.626	-40.0265	-0.213874	0	-0.377023	-0.0942875	-4.67619	0.520461	-10.1619	350.569	40.2174	-0.175533	0	-0.776575	-0.181912	6.27564	0.719944
3.53	7.42871	358.327	-38.4751	-0.21351	0	-0.377179	-0.0985351	-4.75288	0.510337	-10.3976	353.022	39.9301	-0.17517	0	-0.776661	-0.186261	6.324	0.715305
3.54	7.57622	356.828	-36.9815	-0.213134	0	-0.377317	-0.102298	-4.81806	0.499341	-10.6698	355.273	39.6614	-0.174811	0	-0.776726	-0.191011	6.36011	0.710021
3.55	7.66933	355.149	-35.5609	-0.212743	0	-0.377439	-0.105177	-4.8705	0.487681	-10.9821	357.25	39.4008	-0.174453	0	-0.776767	-0.196233	6.38349	0.704029
3.56	7.68483	353.297	-34.2265	-0.212332	0	-0.377549	-0.106789	-4.90943	0.475612	-11.3353	358.896	39.1324	-0.174092	0	-0.776776	-0.201954	6.39426	0.697201
3.57	7.60074	351.269	-32.9882	-0.2119	0	-0.377645	-0.106773	-4.93454	0.46341	-11.7277	360.171	38.8398	-0.173728	0	-0.776746	-0.208164	6.39295	0.689396
3.58	7.39869	349.053	-31.8519	-0.211448	0	-0.377733	-0.104834	-4.94584	0.45132	-12.1542	361.053	38.5104	-0.173361	0	-0.776673	-0.214783	6.38037	0.680539
3.59	7.06887	346.637	-30.8196	-0.210978	0	-0.377813	-0.100815	-4.94366	0.439542	-12.6056	361.532	38.1378	-0.172996	0	-0.776553	-0.221666	6.35743	0.670643
3.6	6.61372	344.013	-29.8888	-0.210498	0	-0.377893	-0.0947548	-4.92868	0.428217	-13.0696	361.614	37.7199	-0.172639	0	-0.776386	-0.228606	6.32516	0.659776
3.61	6.04704	341.179	-29.0544	-0.210015	0	-0.377978	-0.0868823	-4.90197	0.417446	-13.5305	361.317	37.2568	-0.172299	0	-0.776171	-0.235358	6.28499	0.648069
3.62	5.39041	338.146	-28.3092	-0.209541	0	-0.378073	-0.0775544	-4.86506	0.407297	-13.9712	360.67	36.7508	-0.171989	0	-0.775907	-0.241669	6.23877	0.635704
3.63	4.67092	334.934	-27.6442	-0.209091	0	-0.378184	-0.067216	-4.81981	0.397809	-14.3737	359.712	36.2055	-0.171721	0	-0.775598	-0.247292	6.18867	0.622898
3.64	3.91921	331.577	-27.0496	-0.208677	0	-0.378317	-0.0563603	-4.76825	0.388987	-14.7196	358.488	35.626	-0.171508	0	-0.775246	-0.251989	6.13705	0.609891
